<svg width="23" height="23" viewBox="0 0 23 23" fill="none" xmlns="http://www.w3.org/2000/svg">
<g clip-path="url(#clip0_135_187)">
<path d="M15.5607 0.350586C15.612 0.350586 15.6633 0.350586 15.7175 0.350586C15.8434 1.90576 15.2498 3.06778 14.5284 3.90928C13.8205 4.74496 12.8512 5.55547 11.2835 5.43249C11.1789 3.89959 11.7735 2.82375 12.4939 1.98419C13.1621 1.20177 14.387 0.505522 15.5607 0.350586Z" fill="white"/>
<path d="M20.306 16.5376C20.306 16.5531 20.306 16.5666 20.306 16.5812C19.8654 17.9156 19.237 19.0592 18.47 20.1205C17.7699 21.084 16.912 22.3806 15.38 22.3806C14.0563 22.3806 13.177 21.5294 11.8204 21.5062C10.3853 21.483 9.59607 22.2179 8.28396 22.4029C8.13386 22.4029 7.98377 22.4029 7.83658 22.4029C6.87307 22.2635 6.09549 21.5004 5.529 20.8129C3.8586 18.7813 2.56779 16.157 2.32764 12.7988C2.32764 12.4696 2.32764 12.1413 2.32764 11.812C2.42931 9.40859 3.59714 7.45446 5.14941 6.50741C5.96863 6.00387 7.09482 5.57489 8.34884 5.76662C8.88627 5.8499 9.43532 6.03389 9.91659 6.21594C10.3727 6.39121 10.943 6.70205 11.4834 6.68559C11.8494 6.67494 12.2135 6.48417 12.5825 6.34957C13.6631 5.95933 14.7225 5.51195 16.1189 5.72208C17.797 5.97579 18.9881 6.72142 19.724 7.87182C18.3044 8.77529 17.1821 10.1368 17.3739 12.4618C17.5443 14.5738 18.7722 15.8094 20.306 16.5376Z" fill="white"/>
</g>
<defs>
<clipPath id="clip0_135_187">
<rect width="22.0522" height="22.0523" fill="white" transform="translate(0.291016 0.350708)"/>
</clipPath>
</defs>
</svg>
