<?xml version="1.0" encoding="UTF-8"?>
<!--Generator: Apple Native CoreSVG 175.5-->
<!DOCTYPE svg
PUBLIC "-//W3C//DTD SVG 1.1//EN"
       "http://www.w3.org/Graphics/SVG/1.1/DTD/svg11.dtd">
<svg version="1.1" xmlns="http://www.w3.org/2000/svg" xmlns:xlink="http://www.w3.org/1999/xlink" width="34.6875" height="15.8659">
 <g>
  <rect height="15.8659" opacity="0" width="34.6875" x="0" y="0"/>
  <path d="M6.24609 15.8607L11.5195 15.8607C11.2969 15.263 11.3672 14.7826 11.6602 13.974L5.92969 13.974C4.72266 13.974 3.45703 13.8099 2.74219 13.1068C2.03906 12.3919 1.88672 11.138 1.88672 9.93099L1.88672 5.95833C1.88672 4.72786 2.03906 3.47396 2.74219 2.75911C3.45703 2.04427 4.73438 1.89193 5.96484 1.89193L13.8867 1.89193L15.3984 0.00520833L6.22266 0.00520833C4.25391 0.00520833 2.56641 0.192708 1.37109 1.38802C0.175781 2.58333 0 4.25911 0 6.21615L0 9.61458C0 11.6185 0.175781 13.2826 1.37109 14.4779C2.56641 15.6732 4.25391 15.8607 6.24609 15.8607ZM15.8203 15.8607L24.668 15.8607C26.6719 15.8607 28.3594 15.6732 29.5547 14.4779C30.75 13.2826 30.9258 11.6185 30.9258 9.61458L30.9258 6.2513C30.9258 4.2474 30.75 2.58333 29.5547 1.38802C28.3594 0.192708 26.6719 0.00520833 24.668 0.00520833L19.6992 0.00520833C19.8984 0.567708 19.8398 1.04818 19.5586 1.89193L24.9961 1.89193C26.2031 1.89193 27.4688 2.05599 28.1719 2.75911C28.8867 3.47396 29.0391 4.71615 29.0391 5.92318L29.0391 9.93099C29.0391 11.138 28.8867 12.3919 28.1719 13.1068C27.4688 13.8099 26.2031 13.974 24.9961 13.974L17.332 13.974ZM32.5195 10.9622C33.4453 10.9036 34.6875 9.72005 34.6875 7.92708C34.6875 6.14583 33.4453 4.96224 32.5195 4.90365ZM5.30859 12.6146L12.1758 12.6146L12.7969 10.9271L11.1445 10.9271C9.96094 10.9271 9 10.0013 9 8.81771C9 8.29036 9.19922 7.78646 9.52734 7.3763L12.8086 3.2513L5.34375 3.2513C4.51172 3.2513 4.03125 3.36849 3.71484 3.69661C3.38672 4.02474 3.25781 4.50521 3.25781 5.32552L3.25781 10.5638C3.25781 11.3724 3.38672 11.8411 3.71484 12.1693C4.04297 12.4974 4.51172 12.6146 5.30859 12.6146ZM18.4102 12.6146L25.6289 12.6146C26.4258 12.6146 26.8945 12.4974 27.2227 12.1693C27.5508 11.8411 27.6797 11.3724 27.6797 10.5638L27.6797 5.30208C27.6797 4.49349 27.5508 4.02474 27.2227 3.69661C26.8945 3.36849 26.4258 3.2513 25.6289 3.2513L19.043 3.2513L18.4219 4.9388L20.0859 4.9388C21.2578 4.9388 22.2188 5.85286 22.2188 7.04818C22.2188 7.57552 22.0195 8.07943 21.6914 8.48958ZM10.5938 8.81771C10.5938 9.11068 10.8398 9.32161 11.1445 9.32161L15.1055 9.32161L12.9961 15.0169C12.7148 15.7669 13.5234 16.1771 14.0039 15.5794L20.4258 7.50521C20.543 7.35286 20.625 7.20052 20.625 7.04818C20.625 6.75521 20.3789 6.54427 20.0859 6.54427L16.1133 6.54427L18.2227 0.848958C18.5039 0.0989583 17.707-0.311198 17.2266 0.286458L10.793 8.34896C10.6758 8.51302 10.5938 8.66536 10.5938 8.81771Z" fill="#000000"/>
 </g>
</svg>
