<svg width="60" height="59" viewBox="0 0 60 59" fill="none" xmlns="http://www.w3.org/2000/svg">
<g filter="url(#filter0_d_239_489)">
<rect x="6" y="6" width="47.125" height="46.9375" rx="8" fill="#7952B3"/>
</g>
<path d="M18.2983 14.2306C16.1116 14.2306 14.494 16.1452 14.5662 18.2217C14.6357 20.2162 14.5455 22.7999 13.895 24.9065C13.243 27.0198 12.14 28.3553 10.3384 28.5271V30.4732C12.14 30.6447 13.243 31.9805 13.895 34.0938C14.5455 36.2004 14.6354 38.7841 14.5662 40.7786C14.4937 42.8551 16.1116 44.7694 18.2983 44.7694H40.7051C42.8918 44.7694 44.5094 42.8548 44.4372 40.7786C44.3677 38.7841 44.4579 36.2004 45.1081 34.0938C45.7601 31.9808 46.8604 30.645 48.662 30.4732V28.5271C46.8604 28.3556 45.7604 27.0198 45.1081 24.9065C44.4579 22.7999 44.3677 20.2162 44.4372 18.2217C44.5094 16.1452 42.8918 14.2306 40.7048 14.2306H18.2983ZM36.0049 33.0255C36.0049 35.8847 33.8715 37.6181 30.3314 37.6181H23.8043C23.7647 37.6181 23.7266 37.6023 23.6986 37.5743C23.6705 37.5462 23.6547 37.5082 23.6547 37.4685V21.5254C23.6547 21.5057 23.6585 21.4863 23.666 21.4681C23.6735 21.4499 23.6846 21.4334 23.6985 21.4194C23.7124 21.4055 23.7289 21.3945 23.747 21.3869C23.7652 21.3794 23.7847 21.3755 23.8043 21.3755H30.2969C33.2491 21.3755 35.1863 22.9739 35.1863 25.4279C35.1863 27.1503 33.8831 28.692 32.2226 28.9622V29.0524C34.4827 29.3001 36.0049 30.8647 36.0049 33.0255ZM29.6742 23.4355H26.2379V28.2867H29.1324C31.3694 28.2867 32.6031 27.3864 32.6031 25.7767C32.6031 24.2685 31.5425 23.4355 29.6742 23.4355ZM26.2379 30.2118V35.5584H29.8012C32.1305 35.5584 33.3645 34.6242 33.3645 32.868C33.3645 31.1121 32.0961 30.2118 29.6513 30.2118H26.2379Z" fill="white"/>
<defs>
<filter id="filter0_d_239_489" x="0" y="0" width="59.125" height="58.9375" filterUnits="userSpaceOnUse" color-interpolation-filters="sRGB">
<feFlood flood-opacity="0" result="BackgroundImageFix"/>
<feColorMatrix in="SourceAlpha" type="matrix" values="0 0 0 0 0 0 0 0 0 0 0 0 0 0 0 0 0 0 127 0" result="hardAlpha"/>
<feOffset/>
<feGaussianBlur stdDeviation="3"/>
<feComposite in2="hardAlpha" operator="out"/>
<feColorMatrix type="matrix" values="0 0 0 0 0 0 0 0 0 0 0 0 0 0 0 0 0 0 0.3 0"/>
<feBlend mode="normal" in2="BackgroundImageFix" result="effect1_dropShadow_239_489"/>
<feBlend mode="normal" in="SourceGraphic" in2="effect1_dropShadow_239_489" result="shape"/>
</filter>
</defs>
</svg>
