<?xml version="1.0" encoding="UTF-8"?>
<!--Generator: Apple Native CoreSVG 175.5-->
<!DOCTYPE svg
PUBLIC "-//W3C//DTD SVG 1.1//EN"
       "http://www.w3.org/Graphics/SVG/1.1/DTD/svg11.dtd">
<svg version="1.1" xmlns="http://www.w3.org/2000/svg" xmlns:xlink="http://www.w3.org/1999/xlink" width="23.9062" height="23.918">
 <g>
  <rect height="23.918" opacity="0" width="23.9062" x="0" y="0"/>
  <path d="M11.9531 23.9062C18.4922 23.9062 23.9062 18.4805 23.9062 11.9531C23.9062 5.41406 18.4805 0 11.9414 0C5.41406 0 0 5.41406 0 11.9531C0 18.4805 5.42578 23.9062 11.9531 23.9062ZM11.9531 21.9141C6.42188 21.9141 2.00391 17.4844 2.00391 11.9531C2.00391 6.42188 6.41016 1.99219 11.9414 1.99219C17.4727 1.99219 21.9141 6.42188 21.9141 11.9531C21.9141 17.4844 17.4844 21.9141 11.9531 21.9141ZM5.57812 9.64453L18.3516 9.64453C18.8672 9.64453 19.2422 9.31641 19.2422 8.8125C19.2422 8.32031 18.8672 7.99219 18.3516 7.99219L5.57812 7.99219C5.05078 7.99219 4.6875 8.32031 4.6875 8.8125C4.6875 9.31641 5.05078 9.64453 5.57812 9.64453ZM7.3125 13.5234L16.6172 13.5234C17.1328 13.5234 17.4961 13.1953 17.4961 12.6914C17.4961 12.1992 17.1328 11.8711 16.6172 11.8711L7.3125 11.8711C6.78516 11.8711 6.42188 12.1992 6.42188 12.6914C6.42188 13.1953 6.78516 13.5234 7.3125 13.5234ZM9.11719 17.4141L14.8008 17.4141C15.3164 17.4141 15.6914 17.0742 15.6914 16.582C15.6914 16.0898 15.3164 15.7617 14.8008 15.7617L9.11719 15.7617C8.60156 15.7617 8.23828 16.0898 8.23828 16.582C8.23828 17.0742 8.60156 17.4141 9.11719 17.4141Z" fill="#C0C0C0"/>
 </g>
</svg>
