<svg width="60" height="59" viewBox="0 0 60 59" fill="none" xmlns="http://www.w3.org/2000/svg">
<g filter="url(#filter0_d_239_492)">
<rect x="6" y="6" width="47.125" height="46.9375" rx="8" fill="white"/>
</g>
<path d="M16.316 38.9963L14.9863 38.2282L29.8008 12.5707L31.1296 13.3385L16.316 38.9963Z" fill="#E434AA"/>
<path d="M14.6807 36.1788H44.3084V37.7137H14.6807V36.1788Z" fill="#E434AA"/>
<path d="M30.0869 45.5973L15.2681 37.0416L16.0358 35.7114L30.8549 44.2682L30.0869 45.5973ZM42.9603 23.2976L28.1415 14.7407L28.9092 13.4119L43.7283 21.9673L42.9603 23.2976Z" fill="#E434AA"/>
<path d="M16.0395 23.2918L15.2715 21.9618L30.0917 13.4061L30.8595 14.7352L16.0395 23.2918Z" fill="#E434AA"/>
<path d="M42.687 38.9963L27.8737 13.3385L29.2028 12.5707L44.0173 38.2282L42.687 38.9963ZM15.856 20.9431H17.3917V38.0568H15.8562L15.856 20.9431Z" fill="#E434AA"/>
<path d="M41.6079 20.9432H43.1434V38.0568H41.6079V20.9432Z" fill="#E434AA"/>
<path d="M29.8264 44.9478L29.1558 43.7857L42.0439 36.3438L42.7145 37.5058L29.8264 44.9478Z" fill="#E434AA"/>
<path d="M45.1782 38.5557C44.2908 40.1005 42.3113 40.6277 40.7668 39.7403C39.222 38.8517 38.6948 36.8722 39.5822 35.3275C40.4708 33.7827 42.4503 33.2555 43.995 34.1432C45.5488 35.0407 46.076 37.011 45.1782 38.5557ZM19.4088 23.6725C18.5203 25.2172 16.5408 25.7445 14.996 24.8568C13.4513 23.9682 12.924 21.989 13.8117 20.4442C14.7003 18.8995 16.6795 18.3722 18.2243 19.2597C19.769 20.1575 20.2963 22.1277 19.4088 23.6725ZM13.8218 38.5557C12.933 37.011 13.4605 35.0407 15.005 34.1429C16.5497 33.2555 18.52 33.7827 19.4178 35.3275C20.3052 36.8722 19.778 38.8425 18.2332 39.7403C16.6795 40.6277 14.7093 40.1005 13.8218 38.5557ZM39.5912 23.6725C38.7038 22.1277 39.231 20.1575 40.7758 19.2597C42.3205 18.3722 44.2908 18.8995 45.1883 20.4442C46.0757 21.989 45.5488 23.9592 44.004 24.8571C42.4593 25.7445 40.4798 25.2172 39.5912 23.6725ZM29.5 47.6115C29.076 47.6119 28.656 47.5286 28.2642 47.3665C27.8723 47.2044 27.5163 46.9667 27.2164 46.6668C26.9166 46.367 26.6788 46.0109 26.5167 45.6191C26.3546 45.2272 26.2714 44.8073 26.2718 44.3832C26.2714 43.9592 26.3546 43.5392 26.5167 43.1474C26.6788 42.7556 26.9166 42.3995 27.2164 42.0997C27.5163 41.7998 27.8723 41.5621 28.2642 41.4C28.656 41.2379 29.076 41.1546 29.5 41.155C29.924 41.1546 30.344 41.2379 30.7359 41.4C31.1277 41.5621 31.4837 41.7998 31.7836 42.0997C32.0834 42.3995 32.3212 42.7556 32.4833 43.1474C32.6454 43.5392 32.7286 43.9592 32.7283 44.3832C32.7283 46.1595 31.2853 47.6115 29.5 47.6115ZM29.5 17.845C29.076 17.8454 28.656 17.7621 28.2642 17.6C27.8723 17.4379 27.5163 17.2002 27.2164 16.9003C26.9166 16.6005 26.6788 16.2444 26.5167 15.8526C26.3546 15.4607 26.2714 15.0408 26.2718 14.6167C26.2714 14.1927 26.3546 13.7727 26.5167 13.3809C26.6788 12.9891 26.9166 12.633 27.2164 12.3332C27.5163 12.0333 27.8723 11.7956 28.2642 11.6335C28.656 11.4714 29.076 11.3881 29.5 11.3885C29.924 11.3881 30.344 11.4714 30.7359 11.6335C31.1277 11.7956 31.4837 12.0333 31.7836 12.3332C32.0834 12.633 32.3212 12.9891 32.4833 13.3809C32.6454 13.7727 32.7286 14.1927 32.7283 14.6167C32.7286 15.0408 32.6454 15.4607 32.4833 15.8526C32.3212 16.2444 32.0834 16.6005 31.7836 16.9003C31.4837 17.2002 31.1277 17.4379 30.7359 17.6C30.344 17.7621 29.924 17.8454 29.5 17.845Z" fill="#E434AA"/>
<defs>
<filter id="filter0_d_239_492" x="0" y="0" width="59.125" height="58.9375" filterUnits="userSpaceOnUse" color-interpolation-filters="sRGB">
<feFlood flood-opacity="0" result="BackgroundImageFix"/>
<feColorMatrix in="SourceAlpha" type="matrix" values="0 0 0 0 0 0 0 0 0 0 0 0 0 0 0 0 0 0 127 0" result="hardAlpha"/>
<feOffset/>
<feGaussianBlur stdDeviation="3"/>
<feComposite in2="hardAlpha" operator="out"/>
<feColorMatrix type="matrix" values="0 0 0 0 0 0 0 0 0 0 0 0 0 0 0 0 0 0 0.3 0"/>
<feBlend mode="normal" in2="BackgroundImageFix" result="effect1_dropShadow_239_492"/>
<feBlend mode="normal" in="SourceGraphic" in2="effect1_dropShadow_239_492" result="shape"/>
</filter>
</defs>
</svg>
