<?xml version="1.0" encoding="UTF-8"?>
<!--Generator: Apple Native CoreSVG 175.5-->
<!DOCTYPE svg
PUBLIC "-//W3C//DTD SVG 1.1//EN"
       "http://www.w3.org/Graphics/SVG/1.1/DTD/svg11.dtd">
<svg version="1.1" xmlns="http://www.w3.org/2000/svg" xmlns:xlink="http://www.w3.org/1999/xlink" width="21.5742" height="21.5977">
 <g>
  <rect height="21.5977" opacity="0" width="21.5742" x="0" y="0"/>
  <path d="M2.23828 9.84375L7.58203 9.84375C9.07031 9.84375 9.82031 9.09375 9.82031 7.54688L9.82031 2.30859C9.82031 0.761719 9.07031 0.0234375 7.58203 0.0234375L2.23828 0.0234375C0.75 0.0234375 0 0.761719 0 2.30859L0 7.54688C0 9.09375 0.75 9.84375 2.23828 9.84375ZM2.26172 8.19141C1.85156 8.19141 1.65234 7.98047 1.65234 7.54688L1.65234 2.30859C1.65234 1.88672 1.85156 1.67578 2.26172 1.67578L7.54688 1.67578C7.95703 1.67578 8.16797 1.88672 8.16797 2.30859L8.16797 7.54688C8.16797 7.98047 7.95703 8.19141 7.54688 8.19141ZM14.0039 9.84375L19.3359 9.84375C20.8242 9.84375 21.5742 9.09375 21.5742 7.54688L21.5742 2.30859C21.5742 0.761719 20.8242 0.0234375 19.3359 0.0234375L14.0039 0.0234375C12.5039 0.0234375 11.7539 0.761719 11.7539 2.30859L11.7539 7.54688C11.7539 9.09375 12.5039 9.84375 14.0039 9.84375ZM14.0273 8.19141C13.6055 8.19141 13.4062 7.98047 13.4062 7.54688L13.4062 2.30859C13.4062 1.88672 13.6055 1.67578 14.0273 1.67578L19.3125 1.67578C19.7227 1.67578 19.9219 1.88672 19.9219 2.30859L19.9219 7.54688C19.9219 7.98047 19.7227 8.19141 19.3125 8.19141ZM2.23828 21.5977L7.58203 21.5977C9.07031 21.5977 9.82031 20.8594 9.82031 19.3125L9.82031 14.0625C9.82031 12.5273 9.07031 11.7773 7.58203 11.7773L2.23828 11.7773C0.75 11.7773 0 12.5273 0 14.0625L0 19.3125C0 20.8594 0.75 21.5977 2.23828 21.5977ZM2.26172 19.9453C1.85156 19.9453 1.65234 19.7344 1.65234 19.3125L1.65234 14.0742C1.65234 13.6406 1.85156 13.4297 2.26172 13.4297L7.54688 13.4297C7.95703 13.4297 8.16797 13.6406 8.16797 14.0742L8.16797 19.3125C8.16797 19.7344 7.95703 19.9453 7.54688 19.9453ZM14.0039 21.5977L19.3359 21.5977C20.8242 21.5977 21.5742 20.8594 21.5742 19.3125L21.5742 14.0625C21.5742 12.5273 20.8242 11.7773 19.3359 11.7773L14.0039 11.7773C12.5039 11.7773 11.7539 12.5273 11.7539 14.0625L11.7539 19.3125C11.7539 20.8594 12.5039 21.5977 14.0039 21.5977ZM14.0273 19.9453C13.6055 19.9453 13.4062 19.7344 13.4062 19.3125L13.4062 14.0742C13.4062 13.6406 13.6055 13.4297 14.0273 13.4297L19.3125 13.4297C19.7227 13.4297 19.9219 13.6406 19.9219 14.0742L19.9219 19.3125C19.9219 19.7344 19.7227 19.9453 19.3125 19.9453Z" fill="#007AFF" fill-opacity="0.85"/>
 </g>
</svg>
