<svg width="60" height="59" viewBox="0 0 60 59" fill="none" xmlns="http://www.w3.org/2000/svg">
<g filter="url(#filter0_d_239_493)">
<rect x="6" y="6" width="47.125" height="46.9375" rx="8" fill="#212121"/>
</g>
<g clip-path="url(#clip0_239_493)">
<path d="M45.9998 37.1306C45.9998 37.1306 40.9734 36.3859 38.3173 36.1723C35.7666 35.9674 32.7439 35.8491 29.5012 35.8491C26.2585 35.8491 23.2359 35.9674 20.6859 36.1723C18.0291 36.3888 13.0034 37.4221 13.0034 37.4221V38.7209C13.0034 39.8754 20.3901 40.8134 29.5012 40.8134C38.6124 40.8134 45.9991 39.8754 45.9991 38.7209L45.9998 37.1306Z" fill="#F0D50C"/>
<path d="M24.4286 19.9032C18.4042 22.0497 14.3812 27.7536 14.3809 34.149V36.2906C16.5307 35.777 18.7226 35.4592 20.9298 35.341C20.9149 34.9302 20.9072 34.5163 20.9067 34.0992C20.9088 28.4797 22.2654 23.423 24.4286 19.9032Z" fill="#F0D50C"/>
<path d="M44.6212 34.1491C44.6263 30.6399 43.4056 27.2391 41.1699 24.5342C42.1391 27.6298 42.6221 30.857 42.6015 34.1007C42.6015 34.691 42.5863 35.2745 42.556 35.8512C43.2441 35.9571 43.9256 36.1017 44.5973 36.2842L44.6212 34.1491Z" fill="#FFF04D"/>
<path d="M44.6212 34.1491C44.6263 30.6399 43.4056 27.2391 41.1699 24.5342C42.1391 27.6298 42.6221 30.857 42.6015 34.1007C42.6015 34.691 42.5863 35.2745 42.556 35.8512C43.2441 35.9571 43.9256 36.1017 44.5973 36.2842L44.6212 34.1491Z" fill="#FFEA00"/>
<path d="M41.17 24.5334C37.119 19.6229 30.4282 17.7723 24.4297 19.9032C22.265 23.4229 20.9092 28.4797 20.9092 34.0999C20.9092 34.517 20.9169 34.9309 20.9323 35.3417C23.1835 35.1678 25.7898 35.0603 28.5808 35.0408C28.5808 35.0408 29.2151 35.0408 29.503 35.0408C33.8686 34.9884 38.2321 35.2603 42.5575 35.854C42.5869 35.2768 42.602 34.6933 42.603 34.1035C42.6235 30.8586 42.14 27.6301 41.17 24.5334Z" fill="#FFF04D"/>
<path d="M35.5834 25.5336L34.6252 19.5446C34.5571 19.104 34.2414 18.7419 33.8141 18.6145C31.0221 17.7952 28.0535 17.7952 25.2615 18.6145C24.8345 18.7422 24.5191 19.1042 24.4511 19.5446L23.4922 25.5336" fill="#FFF04D"/>
<path d="M29.5029 34.9139C29.2143 34.9139 28.9278 34.9139 28.6435 34.9139H28.6118H28.58C19.8975 34.9745 13.0044 35.8865 13.0044 37.0028V38.6205C12.9903 38.7154 13.0105 38.8121 13.0614 38.8933C13.5023 38.5621 14.0092 38.3293 14.5478 38.2107C15.9194 37.877 17.3136 37.6435 18.7191 37.5122C19.5174 37.4247 20.3148 37.6849 20.9076 38.2266C21.9932 39.2204 23.4117 39.7716 24.8835 39.7714H34.1195C35.5912 39.7714 37.0097 39.2203 38.0953 38.2266C38.6881 37.6843 39.4859 37.4237 40.2845 37.5115C41.6898 37.6428 43.0837 37.8762 44.4551 38.21C44.9652 38.3081 45.4469 38.5188 45.8651 38.8269C45.8889 38.8507 45.9163 38.8717 45.9372 38.8933C45.9884 38.8117 46.0089 38.7145 45.9949 38.6191V37.0014C46 35.8505 38.6134 34.9139 29.5029 34.9139Z" fill="#FFF04D"/>
<path d="M32.9779 30.1097L29.4985 32.2513V35.033L32.9779 30.1097Z" fill="#6E6F70"/>
<path d="M29.5018 35.033V32.2513L26.0225 30.1097L29.5018 35.033Z" fill="#0A0A0A"/>
<path d="M26.0225 28.839L29.5018 30.8507V23.2115L26.0225 28.839Z" fill="#0A0A0A"/>
<path d="M32.9779 28.8391L29.4985 23.2109V26.8266V30.8501L32.9779 28.8383V28.8391Z" fill="#6E6F70"/>
</g>
<defs>
<filter id="filter0_d_239_493" x="0" y="0" width="59.125" height="58.9375" filterUnits="userSpaceOnUse" color-interpolation-filters="sRGB">
<feFlood flood-opacity="0" result="BackgroundImageFix"/>
<feColorMatrix in="SourceAlpha" type="matrix" values="0 0 0 0 0 0 0 0 0 0 0 0 0 0 0 0 0 0 127 0" result="hardAlpha"/>
<feOffset/>
<feGaussianBlur stdDeviation="3"/>
<feComposite in2="hardAlpha" operator="out"/>
<feColorMatrix type="matrix" values="0 0 0 0 0 0 0 0 0 0 0 0 0 0 0 0 0 0 0.3 0"/>
<feBlend mode="normal" in2="BackgroundImageFix" result="effect1_dropShadow_239_493"/>
<feBlend mode="normal" in="SourceGraphic" in2="effect1_dropShadow_239_493" result="shape"/>
</filter>
<clipPath id="clip0_239_493">
<rect width="33" height="22.8164" fill="white" transform="translate(13 18)"/>
</clipPath>
</defs>
</svg>
