<svg width="1217" height="401" viewBox="0 0 1217 401" fill="none" xmlns="http://www.w3.org/2000/svg">
<path class="part1" d="M19 359C124.361 297.256 244.76 204.382 259.5 72.7793" stroke="black" stroke-width="36" stroke-linecap="round"/>
<path class="part2" d="M259.5 72.779C266.5 10.2791 203.457 -0.393478 183 54.779C166.5 99.279 154.569 238.419 145.069 305.252C135.569 372.085 133.5 381.279 133.5 381.279" stroke="black" stroke-width="36" stroke-linecap="round"/>
<path class="part3" d="M133.5 381.279C139.333 342.446 155.5 264.279 182.5 232.279C212.171 197.113 269.979 188.506 277 246.779C282 288.279 254 350.279 281.5 371.279C309 392.279 378 374.279 407 354.779C416.673 348.931 425.867 342.934 425.867 342.934" stroke="black" stroke-width="36" stroke-linecap="round"/>
<path class="part4" d="M425.843 342.951C451.954 327.279 481.628 300.236 492.5 262C503.242 224.223 480.241 200.187 452.5 199.322" stroke="black" stroke-width="36" stroke-linecap="round"/>
<path class="part5" d="M452.5 199.322C437.146 198.844 420.341 205.463 407 220.779C381.302 250.283 374.304 308.543 402.5 341.874C416.342 360.625 448.892 378.227 488 378.119" stroke="black" stroke-width="36" stroke-linecap="round"/>
<path class="part6" d="M488 378.119C522.35 378.024 561.76 364.194 598 325.279C606.547 316.3 612 310.281 612 310.281C634.333 282.115 680 225 698.5 159.779C713.471 107 722.5 37.7794 695.5 24.7793C691.439 22.8239 687.249 21.8693 683 21.885" stroke="black" stroke-width="36" stroke-linecap="round"/>
<path class="part7" d="M683 21.8848C655.858 21.9849 626.266 61.6683 612 133C600.377 191.116 598 221.779 598 265.779C597.167 302.779 608 381.179 672 382.779" stroke="black" stroke-width="36" stroke-linecap="round"/>
<path class="part8" d="M672 382.779C746.5 384.642 800.132 314.5 823.5 278.279C843.5 247.279 877.66 178.951 892 121.779C908.5 56.0003 899.706 33.0702 877 25.2793" stroke="black" stroke-width="36" stroke-linecap="round"/>
<path class="part9" d="M877 25.2792C848.5 15.5001 816.5 54.2793 801 121.779C786.852 183.394 772 264.779 790 316.779C796.5 338.686 823.5 382.5 863.5 382.5" stroke="black" stroke-width="36" stroke-linecap="round"/>
<path class="part10" d="M863.5 382.5C915.161 382.833 957.457 337.5 978.457 262.5C984.457 241.5 1007.06 199.5 1049.46 199.5" stroke="black" stroke-width="36" stroke-linecap="round"/>
<path class="part11" d="M1052.96,199.5C1112.56,199.5 1122.79,256 1119.96,285.5C1119.29,316.333 1102.26,378.7 1039.46,381.5" stroke="black" stroke-width="36" stroke-linecap="round"/>
<path class="part12" d="M1039.46 381.5C972.5 384.5 965.5 314.5 978.457 262.5C984.457 241.5 1007.06 199.5 1049.46 199.5C1102.46 199.5 1098.46 225 1136.46 224C1166.86 223.2 1190.79 202.333 1198.96 192" stroke="black" stroke-width="36" stroke-linecap="round"/>
</svg>
