<svg width="60" height="59" viewBox="0 0 60 59" fill="none" xmlns="http://www.w3.org/2000/svg">
<g filter="url(#filter0_d_235_484)">
<rect x="6" y="6" width="47.125" height="46.9375" rx="8" fill="#F0DB4F"/>
</g>
<g clip-path="url(#clip0_235_484)">
<path d="M9.93994 9.93652H49.0599V48.7512H9.93994V9.93652Z" fill="#F0DB4F"/>
<path d="M45.8582 39.4938C45.5717 37.7231 44.4079 36.2357 40.9607 34.8489C39.7632 34.3028 38.4282 33.9119 38.0304 33.0115C37.8892 32.4875 37.8704 32.1923 37.9598 31.8751C38.2164 30.8457 39.4548 30.5248 40.4364 30.82C41.0686 31.0302 41.667 31.5136 42.0279 32.2847C43.7161 31.2001 43.7126 31.2072 44.8914 30.4618C44.4598 29.798 44.2295 29.4917 43.947 29.2077C42.9317 28.0824 41.5482 27.503 39.3357 27.5473L38.1832 27.6952C37.0789 27.9721 36.0264 28.5472 35.4092 29.3183C33.5573 31.4032 34.0854 35.0519 36.3389 36.5536C38.5589 38.2068 41.8201 38.5829 42.2367 40.1288C42.642 42.0214 40.8348 42.6341 39.0386 42.4165C37.7148 42.1433 36.9786 41.4757 36.1826 40.2619C34.7176 41.103 34.7176 41.103 33.2114 41.9625C33.5686 42.7374 33.9439 43.088 34.5426 43.7593C37.3764 46.6112 44.4676 46.4711 45.7395 42.1545C45.7911 42.0062 46.1336 41.0178 45.8582 39.4938ZM31.2067 27.7758H27.5476L27.5326 37.1619C27.5326 39.1581 27.6367 40.988 27.3095 41.5489C26.7742 42.6521 25.387 42.5154 24.7548 42.3014C24.1114 41.9876 23.7842 41.5415 23.4051 40.9108C23.3011 40.7297 23.2229 40.5896 23.1967 40.5787L20.2217 42.3864C20.7164 43.3938 21.4451 44.2681 22.3786 44.8362C23.7729 45.6665 25.647 45.921 27.607 45.4746C28.8826 45.1059 29.9832 44.3422 30.5595 43.1798C31.3926 41.6559 31.2139 39.8113 31.2064 37.7712C31.2251 34.4427 31.2067 31.1148 31.2067 27.7758Z" fill="#323330"/>
</g>
<defs>
<filter id="filter0_d_235_484" x="0" y="0" width="59.125" height="58.9375" filterUnits="userSpaceOnUse" color-interpolation-filters="sRGB">
<feFlood flood-opacity="0" result="BackgroundImageFix"/>
<feColorMatrix in="SourceAlpha" type="matrix" values="0 0 0 0 0 0 0 0 0 0 0 0 0 0 0 0 0 0 127 0" result="hardAlpha"/>
<feOffset/>
<feGaussianBlur stdDeviation="3"/>
<feComposite in2="hardAlpha" operator="out"/>
<feColorMatrix type="matrix" values="0 0 0 0 0 0 0 0 0 0 0 0 0 0 0 0 0 0 0.3 0"/>
<feBlend mode="normal" in2="BackgroundImageFix" result="effect1_dropShadow_235_484"/>
<feBlend mode="normal" in="SourceGraphic" in2="effect1_dropShadow_235_484" result="shape"/>
</filter>
<clipPath id="clip0_235_484">
<rect width="40" height="39.6875" fill="white" transform="translate(9.5 9.5)"/>
</clipPath>
</defs>
</svg>
