<svg width="60" height="59" viewBox="0 0 60 59" fill="none" xmlns="http://www.w3.org/2000/svg">
<g filter="url(#filter0_d_401_31)">
<rect x="6" y="6" width="47.125" height="46.9375" rx="8" fill="white"/>
</g>
<g clip-path="url(#clip0_401_31)">
<path d="M45.0023 28.2473C45.0023 26.2642 43.4998 24.5954 41.4827 24.1192L46.0003 12.0291H23.6119L28.1399 24.1574C26.1862 24.672 24.746 26.3117 24.746 28.2574C24.746 29.6872 25.5344 30.9551 26.7319 31.7368C26.2596 32.3471 25.7128 32.9099 25.0933 33.4435C23.9272 34.4356 22.634 35.198 21.2372 35.7035C19.9765 34.9311 19.4304 33.5675 19.9239 32.3468C21.8464 31.8131 23.2445 30.1827 23.2445 28.2664C23.2445 25.9118 21.1325 24.0042 18.5472 24.0042C15.952 24.0042 13.8413 25.9208 13.8413 28.2762C13.8413 29.4397 14.366 30.5071 15.2069 31.2694C15.1332 31.4035 15.06 31.5362 14.9863 31.6793C14.2824 32.9957 13.4837 34.483 13.1785 36.1519C12.5693 39.4882 13.5673 42.1682 15.9732 43.6838C17.3287 44.5328 18.8212 44.9618 20.4287 44.9618C23.1909 44.9618 25.9967 43.7029 28.7068 42.4822C30.6404 41.6152 32.6364 40.7087 34.6012 40.2707C35.3264 40.1085 36.0825 40.0129 36.8812 39.9082C38.4985 39.6986 40.1694 39.4792 41.6719 38.6877C43.4263 37.7632 44.6239 36.2181 44.9711 34.4449C45.2328 33.0811 44.9711 31.7085 44.2983 30.5071C44.7579 29.8432 45.0037 29.0547 45.0023 28.2473ZM42.954 28.2473C42.954 29.5725 41.7665 30.6501 40.3063 30.6501C38.846 30.6501 37.6585 29.5725 37.6585 28.2473C37.6585 27.8181 37.7846 27.4084 38.005 27.0557C38.0888 26.9217 38.1945 26.7889 38.299 26.6742C38.4096 26.5562 38.533 26.4508 38.6669 26.3599L38.6779 26.3498C38.7615 26.2926 38.8561 26.2351 38.9507 26.1786C38.9507 26.1786 38.961 26.1786 38.961 26.1686C39.003 26.1495 39.0453 26.1211 39.0879 26.1021C39.0979 26.1021 39.108 26.092 39.1188 26.092C39.1613 26.074 39.2137 26.0549 39.2658 26.0356C39.3155 26.0182 39.3646 25.9991 39.413 25.9783C39.4233 25.9783 39.4341 25.968 39.4442 25.968C39.4864 25.9592 39.5287 25.9399 39.5702 25.9309C39.5813 25.9309 39.6025 25.9208 39.6125 25.9208C39.6648 25.9118 39.7071 25.9017 39.7595 25.8925H39.7705L39.9278 25.8633C39.9386 25.8633 39.9588 25.8633 39.9698 25.8543C40.0121 25.8543 40.0536 25.8443 40.0959 25.8443H40.1482C40.2006 25.8443 40.2539 25.8352 40.3163 25.8352H40.4532C40.4945 25.8352 40.527 25.8352 40.5682 25.8443H40.5894C40.6739 25.8546 40.7575 25.8633 40.842 25.8827C42.0396 26.1111 42.954 27.0841 42.954 28.2473ZM26.5424 13.9356H43.0687L39.2761 24.0901C39.1188 24.1192 38.9608 24.1664 38.8038 24.2138L34.8118 16.8249L30.8085 24.1662C30.6504 24.119 30.4823 24.0898 30.315 24.0615L26.5424 13.9356ZM34.0543 27.4172C33.855 26.5208 33.3505 25.7202 32.6364 25.1291L34.8118 21.1441L37.0071 25.2147C36.3556 25.8058 35.883 26.5592 35.6938 27.4172H34.0543ZM28.7913 25.9115C28.8437 25.9012 28.886 25.8925 28.9383 25.8824H28.9695C29.0118 25.8734 29.0543 25.8734 29.0956 25.8631H29.1378C29.1801 25.8631 29.2113 25.8541 29.2536 25.8541H29.6635C29.7048 25.8541 29.737 25.8631 29.7682 25.8631C29.7893 25.8631 29.7994 25.8631 29.8205 25.8734C29.8628 25.8824 29.894 25.8824 29.9365 25.8925C29.9463 25.8925 29.9574 25.8925 29.9786 25.9015C30.0312 25.9115 30.0835 25.9206 30.1255 25.9306H30.1358C30.1781 25.9396 30.2204 25.9487 30.2617 25.968C30.2727 25.968 30.2828 25.9781 30.3039 25.9781C30.3351 25.9871 30.3774 25.9971 30.4086 26.0162C30.4197 26.0162 30.4297 26.0252 30.4408 26.0252C30.4821 26.0446 30.5246 26.0546 30.5669 26.0737H30.577C30.6293 26.0918 30.6716 26.1108 30.7139 26.1402H30.7242C30.7662 26.1593 30.8085 26.1874 30.8508 26.2065C30.8611 26.2065 30.8611 26.2168 30.8709 26.2168C30.9131 26.2348 30.9446 26.264 30.9869 26.2831L30.998 26.2921C31.1238 26.3779 31.2395 26.4736 31.3543 26.5692L31.3653 26.5782C31.4703 26.6829 31.5749 26.7976 31.6595 26.9217C31.9325 27.3032 32.0906 27.7516 32.0906 28.2378C32.0906 29.5632 30.9031 30.6398 29.4428 30.6398C27.9826 30.6398 26.7951 29.5632 26.7951 28.2378C26.7843 27.122 27.6353 26.1784 28.7913 25.9115ZM18.4525 25.844C19.9131 25.844 21.1003 26.9217 21.1003 28.2468C21.1003 29.5722 19.9131 30.6496 18.4525 30.6496C16.9923 30.6496 15.8048 29.5722 15.8048 28.2468C15.8048 26.9217 16.9923 25.844 18.4525 25.844ZM42.8906 34.1113C42.6599 35.3307 41.8289 36.3994 40.6105 37.0377C39.4653 37.6389 38.0574 37.8292 36.576 38.0197C35.7675 38.1244 34.9165 38.2391 34.0966 38.4203C31.9114 38.9068 29.8105 39.8605 27.7722 40.7749C25.1668 41.9483 22.7075 43.054 20.4287 43.054C19.2412 43.054 18.1798 42.749 17.1717 42.1104C14.8604 40.6613 14.9752 37.9442 15.2492 36.4566C15.5009 35.0639 16.2049 33.7578 16.8776 32.509C16.9188 32.4324 16.951 32.3659 16.9923 32.2893C17.2241 32.3659 17.4656 32.4234 17.7175 32.4615C17.3187 34.4828 18.4525 36.5705 20.6592 37.6008L21.0588 37.791L21.4891 37.6479C23.328 37.0568 25.0299 36.0941 26.5324 34.8068C27.3834 34.0819 28.1087 33.3005 28.7179 32.4515C28.9594 32.4899 29.2013 32.4999 29.4428 32.4999C31.6283 32.4999 33.4663 31.1361 33.9919 29.3054H35.7564C36.2821 31.1454 38.1208 32.4997 40.3063 32.4997C41.1785 32.4997 41.9872 32.2805 42.68 31.9088C42.954 32.6237 43.0375 33.367 42.8906 34.1113Z" fill="#99425B"/>
</g>
<defs>
<filter id="filter0_d_401_31" x="0" y="0" width="59.125" height="58.9375" filterUnits="userSpaceOnUse" color-interpolation-filters="sRGB">
<feFlood flood-opacity="0" result="BackgroundImageFix"/>
<feColorMatrix in="SourceAlpha" type="matrix" values="0 0 0 0 0 0 0 0 0 0 0 0 0 0 0 0 0 0 127 0" result="hardAlpha"/>
<feOffset/>
<feGaussianBlur stdDeviation="3"/>
<feComposite in2="hardAlpha" operator="out"/>
<feColorMatrix type="matrix" values="0 0 0 0 0 0 0 0 0 0 0 0 0 0 0 0 0 0 0.3 0"/>
<feBlend mode="normal" in2="BackgroundImageFix" result="effect1_dropShadow_401_31"/>
<feBlend mode="normal" in="SourceGraphic" in2="effect1_dropShadow_401_31" result="shape"/>
</filter>
<clipPath id="clip0_401_31">
<rect width="33" height="33" fill="white" transform="translate(13 12)"/>
</clipPath>
</defs>
</svg>
