<svg width="60" height="59" viewBox="0 0 60 59" fill="none" xmlns="http://www.w3.org/2000/svg">
<g filter="url(#filter0_d_47_17)">
<g clip-path="url(#clip0_47_17)">
<rect x="6" y="6" width="47.125" height="46.9375" rx="8" fill="black"/>
<path d="M19.2016 24.0938H26.5445V24.6727H19.8719V29.0602H26.1484V29.6391H19.8719V34.4531H26.6359V35.032H19.2016V24.0938ZM27.2148 24.0938H28.007L31.4805 28.9078L34.9844 24.0938L39.7984 18L31.8766 29.4258L35.9594 35.032H35.1367L31.45 29.9133L27.7328 35.032H26.9406L31.0539 29.4258L27.2148 24.0938ZM36.2641 24.6727V24.0938H44.643V24.6727H40.7734V35.032H40.1031V24.6727H36.2641ZM10 24.0938H10.8227L22.4617 41.4L17.6477 35.032L10.7008 24.9164L10.6703 35.032H10V24.0938ZM44.582 34.2703C44.7344 34.2703 44.8258 34.1789 44.8258 34.0266C44.8258 33.8742 44.7344 33.7828 44.582 33.7828C44.4297 33.7828 44.3383 33.8742 44.3383 34.0266C44.3383 34.1789 44.4602 34.2703 44.582 34.2703ZM45.2523 33.6305C45.2523 34.0266 45.557 34.3008 45.9836 34.3008C46.4406 34.3008 46.7148 34.0266 46.7148 33.5391V31.8633H46.3492V33.5391C46.3492 33.8133 46.2273 33.9352 45.9836 33.9352C45.7703 33.9352 45.618 33.8133 45.618 33.6H45.2523V33.6305ZM47.1719 33.6C47.2023 34.0266 47.5375 34.3008 48.0859 34.3008C48.6344 34.3008 49 34.0266 49 33.5695C49 33.2039 48.7867 33.0211 48.3297 32.8992L48.0555 32.8383C47.7508 32.7773 47.6289 32.6555 47.6289 32.5031C47.6289 32.2898 47.8117 32.1375 48.1164 32.1375C48.3906 32.1375 48.5734 32.2594 48.6039 32.5031H48.9695C48.9391 32.107 48.6039 31.8328 48.1164 31.8328C47.5984 31.8328 47.2633 32.107 47.2633 32.5336C47.2633 32.8687 47.4461 33.082 47.8727 33.1734L48.1773 33.2344C48.482 33.2953 48.6344 33.4172 48.6344 33.6C48.6344 33.8133 48.4211 33.9656 48.1164 33.9656C47.8117 33.9656 47.568 33.8133 47.5375 33.6H47.1719Z" fill="white"/>
</g>
</g>
<defs>
<filter id="filter0_d_47_17" x="0" y="0" width="59.125" height="58.9375" filterUnits="userSpaceOnUse" color-interpolation-filters="sRGB">
<feFlood flood-opacity="0" result="BackgroundImageFix"/>
<feColorMatrix in="SourceAlpha" type="matrix" values="0 0 0 0 0 0 0 0 0 0 0 0 0 0 0 0 0 0 127 0" result="hardAlpha"/>
<feOffset/>
<feGaussianBlur stdDeviation="3"/>
<feComposite in2="hardAlpha" operator="out"/>
<feColorMatrix type="matrix" values="0 0 0 0 0 0 0 0 0 0 0 0 0 0 0 0 0 0 0.3 0"/>
<feBlend mode="normal" in2="BackgroundImageFix" result="effect1_dropShadow_47_17"/>
<feBlend mode="normal" in="SourceGraphic" in2="effect1_dropShadow_47_17" result="shape"/>
</filter>
<clipPath id="clip0_47_17">
<rect x="6" y="6" width="47.125" height="46.9375" rx="8" fill="white"/>
</clipPath>
</defs>
</svg>
