<svg width="60" height="59" viewBox="0 0 60 59" fill="none" xmlns="http://www.w3.org/2000/svg">
<g filter="url(#filter0_d_239_490)">
<rect x="6" y="6" width="47.125" height="46.9375" rx="8" fill="white"/>
</g>
<path d="M43.571 19.7684L30.8109 12.367C30.007 11.9091 28.954 11.9091 28.1437 12.367L15.2839 19.7684C14.4546 20.2457 13.8906 21.1426 13.8906 22.102V36.8852C13.8906 37.8446 14.4664 38.7419 15.296 39.2217L18.6865 41.155C20.313 41.9563 20.7637 41.9563 21.5037 41.9563C23.9127 41.9563 25.1638 40.4997 25.1638 37.9591V23.3643C25.1641 23.1582 25.2927 22.8516 25.0901 22.8516H23.465C23.2591 22.8516 22.8516 23.1582 22.8516 23.3641V37.9588C22.8516 39.085 21.8063 40.2057 19.9025 39.2538L16.3985 37.2266C16.2765 37.1601 16.2031 37.0263 16.2031 36.8852V22.102C16.2031 21.9627 16.337 21.8228 16.4607 21.7514L29.2887 14.3627C29.3517 14.3292 29.4219 14.3117 29.4932 14.3117C29.5645 14.3117 29.6347 14.3292 29.6977 14.3627L42.4058 21.7496C42.5275 21.8228 42.5081 21.9583 42.5081 22.102V36.8852C42.5081 37.0263 42.5347 37.1636 42.4147 37.2315L29.6575 44.6246C29.5483 44.6902 29.4061 44.6902 29.2861 44.6246L26.0148 42.6737C25.9162 42.6165 25.7974 42.596 25.7026 42.6489C24.7935 43.1643 24.6247 43.2328 23.7719 43.5285C23.5618 43.6016 23.2519 43.7285 23.8899 44.0861L28.1674 46.6165C28.5758 46.8525 29.0391 46.9767 29.5107 46.9767C29.9842 46.9775 30.4494 46.8532 30.8595 46.6165L43.5713 39.2217C44.4012 38.7384 44.8206 37.8446 44.8206 36.8852V22.102C44.8203 21.1426 44.4009 20.248 43.571 19.7684ZM33.468 34.5427C30.0781 34.5427 29.3318 33.6076 29.0829 31.922C29.0534 31.7405 28.8996 31.5234 28.7146 31.5234H27.0583C26.8533 31.5234 26.6883 31.772 26.6883 31.9761C26.6883 34.1342 27.8619 36.7491 33.468 36.7491C37.5258 36.7491 39.8528 35.1723 39.8528 32.3817C39.8528 29.6147 37.9834 28.8886 34.0478 28.3677C30.0697 27.8419 29.6656 27.5763 29.6656 26.6443C29.6656 25.876 30.0079 24.8513 32.9534 24.8513C35.5851 24.8513 36.5551 25.4161 36.9543 27.1901C36.9887 27.3569 37.1411 27.4766 37.3131 27.4766H38.9763C39.0787 27.4766 39.1761 27.4352 39.2478 27.3621C39.3174 27.2835 39.3539 27.1849 39.3449 27.0791C39.0868 24.024 37.0575 22.6004 32.9531 22.6004C29.3017 22.6004 27.1239 24.1422 27.1239 26.7267C27.1239 29.5301 29.291 30.3047 32.7959 30.6513C36.9887 31.0624 37.3148 31.6752 37.3148 32.4999C37.3148 33.9325 36.1649 34.5427 33.468 34.5427Z" fill="#83CD29"/>
<defs>
<filter id="filter0_d_239_490" x="0" y="0" width="59.125" height="58.9375" filterUnits="userSpaceOnUse" color-interpolation-filters="sRGB">
<feFlood flood-opacity="0" result="BackgroundImageFix"/>
<feColorMatrix in="SourceAlpha" type="matrix" values="0 0 0 0 0 0 0 0 0 0 0 0 0 0 0 0 0 0 127 0" result="hardAlpha"/>
<feOffset/>
<feGaussianBlur stdDeviation="3"/>
<feComposite in2="hardAlpha" operator="out"/>
<feColorMatrix type="matrix" values="0 0 0 0 0 0 0 0 0 0 0 0 0 0 0 0 0 0 0.3 0"/>
<feBlend mode="normal" in2="BackgroundImageFix" result="effect1_dropShadow_239_490"/>
<feBlend mode="normal" in="SourceGraphic" in2="effect1_dropShadow_239_490" result="shape"/>
</filter>
</defs>
</svg>
