<svg width="25" height="25" viewBox="0 0 25 25" fill="none" xmlns="http://www.w3.org/2000/svg">
<path d="M13.3758 12.21L16.3948 9.19109L6.64379 3.71069C5.99753 3.36153 5.39212 3.31253 4.86123 3.69436L13.3758 12.21ZM16.9093 15.7445L20.0477 13.9793C20.6602 13.6363 20.9961 13.1503 20.9961 12.6112C20.9961 12.0732 20.6602 11.5862 20.0487 11.2432L17.2074 9.64745L14.0088 12.845L16.9093 15.7445ZM4.33647 4.43658C4.27113 4.6377 4.23438 4.86231 4.23438 5.10836V20.1212C4.23438 20.5102 4.32013 20.8451 4.47532 21.1116L12.7418 12.844L4.33647 4.43658ZM13.3758 13.477L5.15526 21.6986C5.31248 21.7588 5.48196 21.7905 5.66062 21.7905C5.97916 21.7905 6.31096 21.6966 6.64889 21.5087L16.0977 16.2029L13.3758 13.477Z" fill="white"/>
</svg>
