<svg width="60" height="59" viewBox="0 0 60 59" fill="none" xmlns="http://www.w3.org/2000/svg">
<g filter="url(#filter0_d_47_2)">
<rect x="6" y="6" width="47.125" height="46.9375" rx="8" fill="#212121"/>
<path d="M29.5625 33.0313C31.53 33.0313 33.125 31.4363 33.125 29.4688C33.125 27.5012 31.53 25.9062 29.5625 25.9062C27.595 25.9062 26 27.5012 26 29.4688C26 31.4363 27.595 33.0313 29.5625 33.0313Z" fill="#61DAFB"/>
<path d="M43.0938 23.5938C42.4062 23.3437 41.6875 23.0938 40.9375 22.875C41.125 22.125 41.2812 21.375 41.4062 20.6562C42.0625 16.5312 41.3438 13.625 39.3438 12.5C38.75 12.1562 38.0938 12 37.3438 12C35.1562 12 32.375 13.625 29.5625 16.3438C26.75 13.625 23.9687 12 21.7812 12C21.0312 12 20.375 12.1562 19.7812 12.5C17.7813 13.6562 17.0625 16.5625 17.7188 20.6562C17.8438 21.375 18 22.125 18.1875 22.875C17.4375 23.0938 16.7188 23.3125 16.0313 23.5938C12.125 25.0938 10 27.1562 10 29.4688C10 31.7812 12.1563 33.8438 16.0313 35.3438C16.7188 35.5938 17.4375 35.8438 18.1875 36.0625C18 36.8125 17.8438 37.5625 17.7188 38.2812C17.0625 42.4062 17.7813 45.3125 19.7812 46.4375C20.375 46.7812 21.0312 46.9375 21.7812 46.9375C24 46.9375 26.7812 45.3125 29.5625 42.5938C32.375 45.3125 35.1562 46.9375 37.3438 46.9375C38.0938 46.9375 38.75 46.7812 39.3438 46.4375C41.3438 45.2812 42.0625 42.375 41.4062 38.2812C41.2812 37.5625 41.125 36.8125 40.9375 36.0625C41.6875 35.8438 42.4062 35.625 43.0938 35.3438C47 33.8438 49.125 31.7812 49.125 29.4688C49.125 27.1562 47 25.0938 43.0938 23.5938ZM38.4688 14.0625C39.75 14.8125 40.1875 17.125 39.6562 20.4062C39.5625 21.0625 39.4062 21.75 39.2188 22.4688C37.5938 22.0938 35.875 21.8437 34.0625 21.6875C33 20.1875 31.9062 18.8438 30.8125 17.625C33.125 15.3438 35.4688 13.7812 37.375 13.7812C37.7812 13.7812 38.1562 13.875 38.4688 14.0625ZM34.9688 32.5938C34.4062 33.5938 33.75 34.5938 33.0625 35.5938C31.9062 35.6875 30.75 35.7188 29.5625 35.7188C28.3438 35.7188 27.1875 35.6875 26.0625 35.5938C25.375 34.5938 24.75 33.5938 24.1875 32.5938C23.5937 31.5625 23.0312 30.5 22.5312 29.4688C23.0312 28.4375 23.5937 27.375 24.1875 26.3438C24.75 25.3438 25.4062 24.3438 26.0938 23.3438C27.25 23.25 28.4062 23.2188 29.5938 23.2188C30.8125 23.2188 31.9688 23.25 33.0938 23.3438C33.7812 24.3438 34.4062 25.3438 34.9688 26.3438C35.5625 27.375 36.125 28.4375 36.625 29.4688C36.0937 30.5 35.5625 31.5312 34.9688 32.5938ZM37.5625 31.5625C38.0312 32.6562 38.4062 33.7188 38.75 34.7812C37.6875 35.0312 36.5625 35.2188 35.375 35.375C35.75 34.7813 36.1562 34.1562 36.5 33.5C36.875 32.8438 37.2187 32.1875 37.5625 31.5625ZM29.5625 40.0313C28.8125 39.2188 28.0938 38.3438 27.4062 37.4375C28.125 37.4688 28.8438 37.5 29.5625 37.5C30.2812 37.5 31 37.4688 31.7188 37.4375C31.0312 38.3438 30.3125 39.2188 29.5625 40.0313ZM23.75 35.3438C22.5625 35.1875 21.4375 35 20.375 34.75C20.7187 33.7188 21.0938 32.625 21.5625 31.5312C21.9062 32.1562 22.25 32.8125 22.625 33.4375C23 34.125 23.375 34.7188 23.75 35.3438ZM21.5625 27.375C21.0938 26.2812 20.7187 25.2188 20.375 24.1562C21.4375 23.9062 22.5625 23.7188 23.75 23.5625C23.375 24.1562 22.9687 24.7812 22.625 25.4375C22.25 26.0938 21.9062 26.75 21.5625 27.375ZM29.5625 18.9062C30.3125 19.7188 31.0312 20.5938 31.7188 21.5C31 21.4688 30.2812 21.4375 29.5625 21.4375C28.8438 21.4375 28.125 21.4688 27.4062 21.5C28.0938 20.5938 28.8125 19.7188 29.5625 18.9062ZM36.5 25.4688L35.375 23.5938C36.5625 23.75 37.6875 23.9375 38.75 24.1875C38.4062 25.2188 38.0312 26.3125 37.5625 27.4063C37.2187 26.75 36.875 26.0938 36.5 25.4688ZM19.4688 20.4062C18.9375 17.125 19.375 14.8125 20.6562 14.0625C20.9688 13.875 21.3438 13.7812 21.75 13.7812C23.625 13.7812 25.9688 15.3125 28.3125 17.625C27.2188 18.8125 26.125 20.1875 25.0625 21.6875C23.25 21.8437 21.5312 22.125 19.9062 22.4688C19.7188 21.75 19.5938 21.0625 19.4688 20.4062ZM11.75 29.4688C11.75 28 13.5313 26.4375 16.6563 25.2812C17.2813 25.0312 17.9688 24.8125 18.6562 24.625C19.1562 26.1875 19.7812 27.8438 20.5312 29.5C19.7812 31.1562 19.125 32.7812 18.6562 34.3438C14.3438 33.0938 11.75 31.2188 11.75 29.4688ZM20.6562 44.875C19.375 44.125 18.9375 41.8125 19.4688 38.5312C19.5625 37.875 19.7188 37.1875 19.9062 36.4688C21.5312 36.8438 23.25 37.0938 25.0625 37.25C26.125 38.75 27.2188 40.0938 28.3125 41.3125C26 43.5938 23.6562 45.1562 21.75 45.1562C21.3438 45.1562 20.9688 45.0625 20.6562 44.875ZM39.6562 38.5312C40.1875 41.8125 39.75 44.125 38.4688 44.875C38.1562 45.0625 37.7812 45.1562 37.375 45.1562C35.5 45.1562 33.1562 43.625 30.8125 41.3125C31.9062 40.125 33 38.75 34.0625 37.25C35.875 37.0938 37.5938 36.8125 39.2188 36.4688C39.4062 37.1875 39.5312 37.875 39.6562 38.5312ZM42.4688 33.6562C41.8438 33.9063 41.1562 34.125 40.4688 34.3125C39.9688 32.75 39.3438 31.0938 38.5938 29.4375C39.3438 27.7813 40 26.1563 40.4688 24.5938C44.7812 25.8438 47.375 27.7188 47.375 29.4688C47.375 30.9375 45.5625 32.5 42.4688 33.6562Z" fill="#61DAFB"/>
</g>
<defs>
<filter id="filter0_d_47_2" x="0" y="0" width="59.125" height="58.9375" filterUnits="userSpaceOnUse" color-interpolation-filters="sRGB">
<feFlood flood-opacity="0" result="BackgroundImageFix"/>
<feColorMatrix in="SourceAlpha" type="matrix" values="0 0 0 0 0 0 0 0 0 0 0 0 0 0 0 0 0 0 127 0" result="hardAlpha"/>
<feOffset/>
<feGaussianBlur stdDeviation="3"/>
<feComposite in2="hardAlpha" operator="out"/>
<feColorMatrix type="matrix" values="0 0 0 0 0 0 0 0 0 0 0 0 0 0 0 0 0 0 0.3 0"/>
<feBlend mode="normal" in2="BackgroundImageFix" result="effect1_dropShadow_47_2"/>
<feBlend mode="normal" in="SourceGraphic" in2="effect1_dropShadow_47_2" result="shape"/>
</filter>
</defs>
</svg>
