<svg width="60" height="59" viewBox="0 0 60 59" fill="none" xmlns="http://www.w3.org/2000/svg">
<g filter="url(#filter0_d_401_30)">
<rect x="6" y="6" width="47.125" height="46.9375" rx="8" fill="white"/>
</g>
<g clip-path="url(#clip0_401_30)">
<path d="M36.2514 36.0926C33.7905 41.1238 29.4811 44.509 23.7799 45.6219C22.9058 45.836 22.0084 45.9407 21.1084 45.9336C17.8272 45.9336 14.8194 44.5664 13.3592 42.3269C11.3987 39.3437 10.7315 33.0191 17.1955 28.3406C17.3268 29.0543 17.5948 30.0332 17.7725 30.6129C16.5036 31.5556 15.4649 32.7738 14.7346 34.1758C13.5315 36.5383 13.6655 38.898 15.0901 41.0801C16.0744 42.5512 17.633 43.4453 19.6373 43.7187C22.1408 44.0356 24.6804 43.5573 26.8971 42.3516C30.3725 40.525 32.6885 38.343 34.2034 35.3598C33.775 34.9171 33.5215 34.3343 33.4897 33.7191C33.4668 33.059 33.7067 32.4168 34.1568 31.9334C34.6069 31.4499 35.2304 31.1648 35.8905 31.1406H35.9834C36.6255 31.1374 37.2441 31.3811 37.7115 31.8213C38.1788 32.2615 38.459 32.8646 38.4942 33.5056C38.5293 34.1467 38.3166 34.7768 37.9002 35.2654C37.4838 35.754 36.8954 36.0639 36.2569 36.1308L36.2514 36.0926ZM44.0909 30.5691C47.4295 34.3535 47.5198 38.8078 46.2291 41.3918C45.026 43.7516 41.8541 46.1141 37.5885 46.1141C35.5972 46.0734 33.6383 45.6024 31.8463 44.7332C32.4725 44.2875 33.3612 43.5738 33.8506 43.1281C35.2325 43.7268 36.7197 44.0447 38.2256 44.0633C40.9873 44.0633 43.0791 42.7726 44.326 40.4129C45.1272 38.8543 45.1737 37.0277 44.4162 35.1574C43.4868 32.8042 41.833 30.8075 39.694 29.4562C36.8876 27.5644 33.5792 26.5559 30.1948 26.5605H29.3936C29.2068 26.9921 28.9028 27.3627 28.5162 27.6304C28.1296 27.8982 27.6758 28.0523 27.2061 28.0754H27.1213C26.4717 28.0674 25.8507 27.8065 25.3904 27.348C24.93 26.8896 24.6665 26.2697 24.6559 25.6201C24.6452 24.9705 24.8882 24.3423 25.3332 23.869C25.7782 23.3957 26.3903 23.1145 27.0393 23.0851H27.1295C27.5818 23.0855 28.0252 23.2105 28.4111 23.4463C28.797 23.6822 29.1105 24.0199 29.317 24.4223H30.0307C35.7182 24.4223 40.7112 26.6043 44.0909 30.5691ZM21.4639 36.8582C21.4171 36.4041 21.5271 35.9477 21.7756 35.5648C19.2819 31.2445 17.9475 25.7676 19.9955 20.0664C21.4639 15.7816 25.1608 12.8859 29.1694 12.8859C33.4459 12.8859 37.9002 16.6293 38.4334 23.8426C37.7662 23.6211 36.7928 23.2957 36.2076 23.1754C36.0627 20.8156 34.0694 14.9367 29.3471 15.0242C27.6545 15.0707 25.1608 15.8719 23.8784 17.518C22.292 19.4829 21.3692 21.9001 21.2424 24.4223C20.9418 27.8806 21.7532 31.3446 23.5584 34.3098C23.6581 34.2733 23.7643 34.2584 23.8701 34.266H23.9576C24.619 34.254 25.2581 34.5053 25.7342 34.9645C26.2103 35.4237 26.4845 36.0533 26.4965 36.7146C26.5085 37.376 26.2572 38.0151 25.798 38.4912C25.3388 38.9673 24.7093 39.2415 24.0479 39.2535H23.9576C23.3124 39.2512 22.693 39 22.2284 38.5522C21.7638 38.1045 21.49 37.4947 21.4639 36.85V36.8582Z" fill="#764ABC"/>
</g>
<defs>
<filter id="filter0_d_401_30" x="0" y="0" width="59.125" height="58.9375" filterUnits="userSpaceOnUse" color-interpolation-filters="sRGB">
<feFlood flood-opacity="0" result="BackgroundImageFix"/>
<feColorMatrix in="SourceAlpha" type="matrix" values="0 0 0 0 0 0 0 0 0 0 0 0 0 0 0 0 0 0 127 0" result="hardAlpha"/>
<feOffset/>
<feGaussianBlur stdDeviation="3"/>
<feComposite in2="hardAlpha" operator="out"/>
<feColorMatrix type="matrix" values="0 0 0 0 0 0 0 0 0 0 0 0 0 0 0 0 0 0 0.3 0"/>
<feBlend mode="normal" in2="BackgroundImageFix" result="effect1_dropShadow_401_30"/>
<feBlend mode="normal" in="SourceGraphic" in2="effect1_dropShadow_401_30" result="shape"/>
</filter>
<clipPath id="clip0_401_30">
<rect width="35" height="35" fill="white" transform="translate(12 12)"/>
</clipPath>
</defs>
</svg>
