<svg width="60" height="59" viewBox="0 0 60 59" fill="none" xmlns="http://www.w3.org/2000/svg">
<g filter="url(#filter0_d_239_491)">
<rect x="6" y="6" width="47.125" height="46.9375" rx="8" fill="white"/>
</g>
<g clip-path="url(#clip0_239_491)">
<path opacity="0.45" d="M34.7763 12L29.4708 21.4303H18.8667L24.1686 12H34.7763Z" fill="black"/>
<path opacity="0.6" d="M29.4706 21.4297H40.0783L34.7766 12H24.1689L29.4706 21.4297Z" fill="black"/>
<path opacity="0.8" d="M24.1688 30.8559L29.4708 21.4298L24.1688 12L18.8672 21.4298L24.1688 30.8559Z" fill="black"/>
<path opacity="0.45" d="M24.2202 45L29.5257 35.5703H40.1334L34.8279 45H24.2202Z" fill="black"/>
<path opacity="0.6" d="M29.5257 35.5708H18.918L24.2196 45.0003H34.8273L29.5257 35.5708Z" fill="black"/>
<path opacity="0.8" d="M34.828 26.1446L29.5264 35.5707L34.828 45.0002L40.1335 35.5707L34.828 26.1446Z" fill="black"/>
</g>
<defs>
<filter id="filter0_d_239_491" x="0" y="0" width="59.125" height="58.9375" filterUnits="userSpaceOnUse" color-interpolation-filters="sRGB">
<feFlood flood-opacity="0" result="BackgroundImageFix"/>
<feColorMatrix in="SourceAlpha" type="matrix" values="0 0 0 0 0 0 0 0 0 0 0 0 0 0 0 0 0 0 127 0" result="hardAlpha"/>
<feOffset/>
<feGaussianBlur stdDeviation="3"/>
<feComposite in2="hardAlpha" operator="out"/>
<feColorMatrix type="matrix" values="0 0 0 0 0 0 0 0 0 0 0 0 0 0 0 0 0 0 0.3 0"/>
<feBlend mode="normal" in2="BackgroundImageFix" result="effect1_dropShadow_239_491"/>
<feBlend mode="normal" in="SourceGraphic" in2="effect1_dropShadow_239_491" result="shape"/>
</filter>
<clipPath id="clip0_239_491">
<rect width="33" height="33" fill="white" transform="translate(13 12)"/>
</clipPath>
</defs>
</svg>
