<svg width="60" height="59" viewBox="0 0 60 59" fill="none" xmlns="http://www.w3.org/2000/svg">
<g filter="url(#filter0_d_238_485)">
<rect x="6" y="6" width="47.125" height="46.9375" rx="8" fill="#007ACC"/>
</g>
<g clip-path="url(#clip0_238_485)">
<path d="M16.5845 24.1875H47.7313V47.2094H16.5845V24.1875Z" fill="white"/>
<path d="M9.96875 29.4719V49.0031H49.0312V9.94061H9.96875V29.4719ZM41.4469 27.9094C42.3825 28.1265 43.2328 28.6158 43.8906 29.3156C44.2528 29.6926 44.5676 30.1124 44.8281 30.5656C44.8281 30.6156 43.1406 31.7562 42.1125 32.3937C42.075 32.4187 41.925 32.2562 41.7594 32.0094C41.5717 31.6855 41.305 31.4145 40.9842 31.2216C40.6635 31.0287 40.299 30.9202 39.925 30.9062C38.7406 30.825 37.9781 31.4469 37.9844 32.4687C37.9746 32.7232 38.0328 32.9756 38.1531 33.2C38.4125 33.7406 38.8969 34.0625 40.4156 34.7187C43.2125 35.9219 44.4094 36.7156 45.1531 37.8437C45.9844 39.0937 46.1688 41.1125 45.6063 42.6062C44.9813 44.2312 43.45 45.3344 41.2844 45.7C40.2953 45.8133 39.2959 45.8028 38.3094 45.6687C36.7974 45.4195 35.4046 44.6936 34.3344 43.5969C33.975 43.2 33.275 42.1656 33.3188 42.0906C33.4328 42.0059 33.5529 41.9297 33.6781 41.8625L35.125 41.0625L36.2469 40.4125L36.4812 40.7594C36.8768 41.3252 37.3802 41.8073 37.9625 42.1781C39.2125 42.8344 40.9187 42.7437 41.7625 41.9844C42.0458 41.7061 42.2225 41.3373 42.2619 40.9422C42.3013 40.547 42.2009 40.1506 41.9781 39.8219C41.6656 39.3875 41.0406 39.0219 39.2937 38.2594C37.2781 37.3906 36.4094 36.8531 35.6156 35.9969C35.1201 35.4318 34.7543 34.7652 34.5438 34.0437C34.3867 33.2195 34.3635 32.3754 34.475 31.5437C34.8906 29.5969 36.35 28.2375 38.4812 27.8344C39.4683 27.7122 40.468 27.7396 41.4469 27.9156V27.9094ZM32.2781 29.5469V31.1469H27.2062V45.5937H23.6094V31.1437H18.525V29.5812C18.5092 29.0424 18.5217 28.5031 18.5625 27.9656C18.5875 27.9375 21.6875 27.9375 25.4375 27.9375H32.2594L32.2781 29.5469Z" fill="#007ACC"/>
</g>
<defs>
<filter id="filter0_d_238_485" x="0" y="0" width="59.125" height="58.9375" filterUnits="userSpaceOnUse" color-interpolation-filters="sRGB">
<feFlood flood-opacity="0" result="BackgroundImageFix"/>
<feColorMatrix in="SourceAlpha" type="matrix" values="0 0 0 0 0 0 0 0 0 0 0 0 0 0 0 0 0 0 127 0" result="hardAlpha"/>
<feOffset/>
<feGaussianBlur stdDeviation="3"/>
<feComposite in2="hardAlpha" operator="out"/>
<feColorMatrix type="matrix" values="0 0 0 0 0 0 0 0 0 0 0 0 0 0 0 0 0 0 0.3 0"/>
<feBlend mode="normal" in2="BackgroundImageFix" result="effect1_dropShadow_238_485"/>
<feBlend mode="normal" in="SourceGraphic" in2="effect1_dropShadow_238_485" result="shape"/>
</filter>
<clipPath id="clip0_238_485">
<rect width="40" height="40" fill="white" transform="translate(9.5 9.5)"/>
</clipPath>
</defs>
</svg>
