<?xml version="1.0" encoding="UTF-8"?>
<!--Generator: Apple Native CoreSVG 175.5-->
<!DOCTYPE svg
PUBLIC "-//W3C//DTD SVG 1.1//EN"
       "http://www.w3.org/Graphics/SVG/1.1/DTD/svg11.dtd">
<svg version="1.1" xmlns="http://www.w3.org/2000/svg" xmlns:xlink="http://www.w3.org/1999/xlink" width="20.8008" height="25.8867">
 <g>
  <rect height="25.8867" opacity="0" width="20.8008" x="0" y="0"/>
  <path d="M3.67969 25.3008L17.1211 25.3008C19.5703 25.3008 20.8008 24.082 20.8008 21.668L20.8008 9.97266C20.8008 7.55859 19.5703 6.33984 17.1211 6.33984L13.8516 6.33984L13.8516 8.22656L17.0859 8.22656C18.2461 8.22656 18.9141 8.85938 18.9141 10.0781L18.9141 21.5625C18.9141 22.7812 18.2461 23.4141 17.0859 23.4141L3.70312 23.4141C2.53125 23.4141 1.88672 22.7812 1.88672 21.5625L1.88672 10.0781C1.88672 8.85938 2.53125 8.22656 3.70312 8.22656L6.94922 8.22656L6.94922 6.33984L3.67969 6.33984C1.23047 6.33984 0 7.55859 0 9.97266L0 21.668C0 24.082 1.23047 25.3008 3.67969 25.3008ZM10.3945 17.5898C10.6406 17.5898 10.8398 17.5195 11.0742 17.2852L15.0352 13.4531C15.2109 13.2773 15.3164 13.0898 15.3164 12.8438C15.3164 12.3633 14.9414 12.0234 14.4609 12.0234C14.2266 12.0234 13.9922 12.1172 13.8281 12.3047L12.0469 14.1914L11.2617 15.0234L11.332 13.2656L11.332 0.914062C11.332 0.421875 10.8984 0 10.3945 0C9.89062 0 9.46875 0.421875 9.46875 0.914062L9.46875 13.2656L9.53906 15.0234L8.74219 14.1914L6.97266 12.3047C6.80859 12.1172 6.55078 12.0234 6.32812 12.0234C5.83594 12.0234 5.48438 12.3633 5.48438 12.8438C5.48438 13.0898 5.57812 13.2773 5.75391 13.4531L9.71484 17.2852C9.96094 17.5195 10.1602 17.5898 10.3945 17.5898Z" fill="#007AFF" fill-opacity="0.85"/>
 </g>
</svg>
